<svg xmlns="http://www.w3.org/2000/svg" xmlns:xlink="http://www.w3.org/1999/xlink" id="Camada_1" x="0px" y="0px" viewBox="0 0 200 60.8" style="enable-background:new 0 0 200 60.8;" xml:space="preserve"><style type="text/css">	.st0{fill:#00446B;}	.st1{fill:#00528B;}</style><g>	<g>		<path class="st0" d="M54.9,33.2h11.4c0.6,0,0.9-0.3,0.9-0.8v-0.3c0-0.5-0.3-0.8-0.8-0.9L59,30.1c-2.8-0.4-4.1-1.8-4.1-4.2v-2.1   c0-2.6,1.7-4.2,4.2-4.2h12.5v2.8L70.1,24h-9.4c-0.6,0-0.9,0.3-0.9,0.8V25c0,0.5,0.3,0.8,0.8,0.9L68,27c2.9,0.4,4.1,1.8,4.1,4.2   v2.1c0,2.6-1.7,4.2-4.2,4.2h-13V33.2z"></path>		<path class="st0" d="M74.7,24.3h3.3l0.8,1.7H79c0.2-0.3,0.4-0.7,0.7-1c0.5-0.5,1.2-1,2.3-1h3.9c2.1,0,3.6,1.5,3.6,3.6V34   c0,2.1-1.5,3.6-3.6,3.6h-6.4V42h-4.6V24.3z M83.7,33.6c0.7,0,1-0.3,1-1v-3.5c0-0.7-0.3-1-1-1h-3c-1,0-1.4,0.4-1.4,1.4v4.1H83.7z"></path>		<path class="st0" d="M92.2,24.3h3.3l0.8,1.7h0.1c0.2-0.3,0.4-0.7,0.7-1c0.5-0.5,1.2-1,2.3-1h3.2v4.2h-4.8c-0.7,0-1,0.3-1,1v8.2   h-4.6V24.3z"></path>		<path class="st0" d="M104.8,18.8h4.6v4.1h-4.6V18.8z M104.8,24.3h4.6v13.2h-4.6V24.3z"></path>		<path class="st0" d="M112.7,24.3h3.3l0.8,1.7h0.1c0.2-0.3,0.4-0.7,0.7-1c0.5-0.5,1.2-1,2.3-1h3.3c2.1,0,3.6,1.5,3.6,3.6v9.9h-4.6   v-8.5c0-0.7-0.3-1-1-1h-2.4c-1,0-1.4,0.4-1.4,1.4v8.1h-4.6V24.3z"></path>		<path class="st0" d="M131.1,28.1H129v-3.7h2.3l1.5-3.5h2.8v3.5h4v2.4l-1.3,1.3h-2.7v4.5c0,0.7,0.3,1,1,1h3.2v4h-5.3   c-2.1,0-3.6-1.5-3.6-3.6V28.1z"></path>		<path class="st1" d="M149.9,21.9H143l0.5-2.3h16.5l-0.3,1.5l-1,0.8h-6.2l-3.3,15.7h-2.6L149.9,21.9z"></path>		<path class="st1" d="M157.7,27.9c0.5-2.5,1.7-3.5,4.2-3.5h5.1c2.2,0,3.5,1.7,3,3.9l-0.9,4.1h-10.2l-0.2,0.9   c-0.3,1.3,0.3,2.1,1.6,2.1h7.6l-0.5,2.2h-8.1c-2.2,0-3.5-1.7-3-3.9L157.7,27.9z M167.4,30.3l0.3-1.5c0.3-1.3-0.3-2.1-1.6-2.1h-3.9   c-1.6,0-2,0.4-2.3,1.9l-0.4,1.7H167.4z"></path>		<path class="st1" d="M173.5,28.2c0.5-2.5,1.7-3.5,4.2-3.5h7.5l-0.3,1.4l-0.9,0.8H178c-1.6,0-2,0.4-2.3,1.9l-1,4.5   c-0.3,1.3,0.3,2.1,1.6,2.1h6.6l-0.5,2.2h-7.1c-2.2,0-3.5-1.7-3-3.9L173.5,28.2z"></path>		<path class="st1" d="M189.3,20.1h2.3l-1.3,5.9h0.1c0.2-0.3,0.4-0.5,0.7-0.8c0.5-0.4,1.3-0.8,2.5-0.8h3.1c2.2,0,3.5,1.7,3,3.9   l-2,9.3h-2.3l1.9-8.9c0.3-1.3-0.3-2.1-1.6-2.1h-3c-2,0-2.9,0.7-3.3,2.7l-1.7,8.2h-2.3L189.3,20.1z"></path>	</g>	<g>		<path class="st0" d="M33.3,39.4L33.3,39.4c1-2.1-0.5-4.8-2.8-4.9C14.3,33.4,7.7,28.1,5,24.2c-1.3-2-1.3-4.6,0-6.5   c2.6-3.9,9.3-9.3,25.5-10.3c2.3-0.1,3.8-2.8,2.8-4.9h0C32.7,1,31.2-0.3,29.7,0C22,1.7,0,7.4,0,20.9s22,19.2,29.7,20.8   C31.2,42.1,32.7,40.8,33.3,39.4z"></path>		<path class="st1" d="M18.7,19c-1.5-0.3-3,1-3.6,2.3l0,0c-1,2.1,0.5,4.8,2.8,4.9c16.2,1,22.9,6.4,25.5,10.3c1.3,2,1.3,4.6,0,6.5   c-2.6,3.9-9.3,9.3-25.5,10.3c-2.3,0.1-3.8,2.8-2.8,4.9h0c0.6,1.4,2.2,2.7,3.6,2.3c7.6-1.6,29.7-7.4,29.7-20.8S26.4,20.6,18.7,19z"></path>	</g></g></svg>